<?xml version="1.0"?>
<svg xmlns="http://www.w3.org/2000/svg" xmlns:xlink="http://www.w3.org/1999/xlink" version="1.1" width="460px" height="460px" viewBox="0 0 460 460"><defs><rect id="block" width="13" height="13" fill="#000000" fill-opacity="1"/></defs><rect x="0" y="0" width="460" height="460" fill="#ffffff" fill-opacity="1"/><use x="41" y="41" xlink:href="#block"/><use x="54" y="41" xlink:href="#block"/><use x="67" y="41" xlink:href="#block"/><use x="80" y="41" xlink:href="#block"/><use x="93" y="41" xlink:href="#block"/><use x="106" y="41" xlink:href="#block"/><use x="119" y="41" xlink:href="#block"/><use x="158" y="41" xlink:href="#block"/><use x="223" y="41" xlink:href="#block"/><use x="236" y="41" xlink:href="#block"/><use x="327" y="41" xlink:href="#block"/><use x="340" y="41" xlink:href="#block"/><use x="353" y="41" xlink:href="#block"/><use x="366" y="41" xlink:href="#block"/><use x="379" y="41" xlink:href="#block"/><use x="392" y="41" xlink:href="#block"/><use x="405" y="41" xlink:href="#block"/><use x="41" y="54" xlink:href="#block"/><use x="119" y="54" xlink:href="#block"/><use x="145" y="54" xlink:href="#block"/><use x="158" y="54" xlink:href="#block"/><use x="184" y="54" xlink:href="#block"/><use x="197" y="54" xlink:href="#block"/><use x="210" y="54" xlink:href="#block"/><use x="223" y="54" xlink:href="#block"/><use x="236" y="54" xlink:href="#block"/><use x="262" y="54" xlink:href="#block"/><use x="327" y="54" xlink:href="#block"/><use x="405" y="54" xlink:href="#block"/><use x="41" y="67" xlink:href="#block"/><use x="67" y="67" xlink:href="#block"/><use x="80" y="67" xlink:href="#block"/><use x="93" y="67" xlink:href="#block"/><use x="119" y="67" xlink:href="#block"/><use x="158" y="67" xlink:href="#block"/><use x="171" y="67" xlink:href="#block"/><use x="184" y="67" xlink:href="#block"/><use x="210" y="67" xlink:href="#block"/><use x="249" y="67" xlink:href="#block"/><use x="262" y="67" xlink:href="#block"/><use x="275" y="67" xlink:href="#block"/><use x="288" y="67" xlink:href="#block"/><use x="301" y="67" xlink:href="#block"/><use x="327" y="67" xlink:href="#block"/><use x="353" y="67" xlink:href="#block"/><use x="366" y="67" xlink:href="#block"/><use x="379" y="67" xlink:href="#block"/><use x="405" y="67" xlink:href="#block"/><use x="41" y="80" xlink:href="#block"/><use x="67" y="80" xlink:href="#block"/><use x="80" y="80" xlink:href="#block"/><use x="93" y="80" xlink:href="#block"/><use x="119" y="80" xlink:href="#block"/><use x="145" y="80" xlink:href="#block"/><use x="158" y="80" xlink:href="#block"/><use x="184" y="80" xlink:href="#block"/><use x="223" y="80" xlink:href="#block"/><use x="236" y="80" xlink:href="#block"/><use x="249" y="80" xlink:href="#block"/><use x="301" y="80" xlink:href="#block"/><use x="327" y="80" xlink:href="#block"/><use x="353" y="80" xlink:href="#block"/><use x="366" y="80" xlink:href="#block"/><use x="379" y="80" xlink:href="#block"/><use x="405" y="80" xlink:href="#block"/><use x="41" y="93" xlink:href="#block"/><use x="67" y="93" xlink:href="#block"/><use x="80" y="93" xlink:href="#block"/><use x="93" y="93" xlink:href="#block"/><use x="119" y="93" xlink:href="#block"/><use x="171" y="93" xlink:href="#block"/><use x="197" y="93" xlink:href="#block"/><use x="223" y="93" xlink:href="#block"/><use x="236" y="93" xlink:href="#block"/><use x="249" y="93" xlink:href="#block"/><use x="275" y="93" xlink:href="#block"/><use x="288" y="93" xlink:href="#block"/><use x="301" y="93" xlink:href="#block"/><use x="327" y="93" xlink:href="#block"/><use x="353" y="93" xlink:href="#block"/><use x="366" y="93" xlink:href="#block"/><use x="379" y="93" xlink:href="#block"/><use x="405" y="93" xlink:href="#block"/><use x="41" y="106" xlink:href="#block"/><use x="119" y="106" xlink:href="#block"/><use x="145" y="106" xlink:href="#block"/><use x="171" y="106" xlink:href="#block"/><use x="223" y="106" xlink:href="#block"/><use x="236" y="106" xlink:href="#block"/><use x="262" y="106" xlink:href="#block"/><use x="301" y="106" xlink:href="#block"/><use x="327" y="106" xlink:href="#block"/><use x="405" y="106" xlink:href="#block"/><use x="41" y="119" xlink:href="#block"/><use x="54" y="119" xlink:href="#block"/><use x="67" y="119" xlink:href="#block"/><use x="80" y="119" xlink:href="#block"/><use x="93" y="119" xlink:href="#block"/><use x="106" y="119" xlink:href="#block"/><use x="119" y="119" xlink:href="#block"/><use x="145" y="119" xlink:href="#block"/><use x="171" y="119" xlink:href="#block"/><use x="197" y="119" xlink:href="#block"/><use x="223" y="119" xlink:href="#block"/><use x="249" y="119" xlink:href="#block"/><use x="275" y="119" xlink:href="#block"/><use x="301" y="119" xlink:href="#block"/><use x="327" y="119" xlink:href="#block"/><use x="340" y="119" xlink:href="#block"/><use x="353" y="119" xlink:href="#block"/><use x="366" y="119" xlink:href="#block"/><use x="379" y="119" xlink:href="#block"/><use x="392" y="119" xlink:href="#block"/><use x="405" y="119" xlink:href="#block"/><use x="197" y="132" xlink:href="#block"/><use x="210" y="132" xlink:href="#block"/><use x="249" y="132" xlink:href="#block"/><use x="262" y="132" xlink:href="#block"/><use x="275" y="132" xlink:href="#block"/><use x="301" y="132" xlink:href="#block"/><use x="41" y="145" xlink:href="#block"/><use x="54" y="145" xlink:href="#block"/><use x="67" y="145" xlink:href="#block"/><use x="80" y="145" xlink:href="#block"/><use x="93" y="145" xlink:href="#block"/><use x="119" y="145" xlink:href="#block"/><use x="132" y="145" xlink:href="#block"/><use x="145" y="145" xlink:href="#block"/><use x="158" y="145" xlink:href="#block"/><use x="171" y="145" xlink:href="#block"/><use x="197" y="145" xlink:href="#block"/><use x="223" y="145" xlink:href="#block"/><use x="236" y="145" xlink:href="#block"/><use x="301" y="145" xlink:href="#block"/><use x="314" y="145" xlink:href="#block"/><use x="340" y="145" xlink:href="#block"/><use x="366" y="145" xlink:href="#block"/><use x="392" y="145" xlink:href="#block"/><use x="54" y="158" xlink:href="#block"/><use x="67" y="158" xlink:href="#block"/><use x="93" y="158" xlink:href="#block"/><use x="106" y="158" xlink:href="#block"/><use x="145" y="158" xlink:href="#block"/><use x="158" y="158" xlink:href="#block"/><use x="223" y="158" xlink:href="#block"/><use x="275" y="158" xlink:href="#block"/><use x="288" y="158" xlink:href="#block"/><use x="301" y="158" xlink:href="#block"/><use x="314" y="158" xlink:href="#block"/><use x="340" y="158" xlink:href="#block"/><use x="353" y="158" xlink:href="#block"/><use x="366" y="158" xlink:href="#block"/><use x="392" y="158" xlink:href="#block"/><use x="67" y="171" xlink:href="#block"/><use x="80" y="171" xlink:href="#block"/><use x="106" y="171" xlink:href="#block"/><use x="119" y="171" xlink:href="#block"/><use x="132" y="171" xlink:href="#block"/><use x="158" y="171" xlink:href="#block"/><use x="184" y="171" xlink:href="#block"/><use x="197" y="171" xlink:href="#block"/><use x="210" y="171" xlink:href="#block"/><use x="223" y="171" xlink:href="#block"/><use x="236" y="171" xlink:href="#block"/><use x="249" y="171" xlink:href="#block"/><use x="262" y="171" xlink:href="#block"/><use x="288" y="171" xlink:href="#block"/><use x="340" y="171" xlink:href="#block"/><use x="366" y="171" xlink:href="#block"/><use x="379" y="171" xlink:href="#block"/><use x="41" y="184" xlink:href="#block"/><use x="54" y="184" xlink:href="#block"/><use x="80" y="184" xlink:href="#block"/><use x="93" y="184" xlink:href="#block"/><use x="106" y="184" xlink:href="#block"/><use x="158" y="184" xlink:href="#block"/><use x="171" y="184" xlink:href="#block"/><use x="184" y="184" xlink:href="#block"/><use x="249" y="184" xlink:href="#block"/><use x="288" y="184" xlink:href="#block"/><use x="314" y="184" xlink:href="#block"/><use x="327" y="184" xlink:href="#block"/><use x="340" y="184" xlink:href="#block"/><use x="353" y="184" xlink:href="#block"/><use x="366" y="184" xlink:href="#block"/><use x="405" y="184" xlink:href="#block"/><use x="54" y="197" xlink:href="#block"/><use x="67" y="197" xlink:href="#block"/><use x="93" y="197" xlink:href="#block"/><use x="119" y="197" xlink:href="#block"/><use x="132" y="197" xlink:href="#block"/><use x="145" y="197" xlink:href="#block"/><use x="158" y="197" xlink:href="#block"/><use x="184" y="197" xlink:href="#block"/><use x="236" y="197" xlink:href="#block"/><use x="249" y="197" xlink:href="#block"/><use x="262" y="197" xlink:href="#block"/><use x="275" y="197" xlink:href="#block"/><use x="301" y="197" xlink:href="#block"/><use x="314" y="197" xlink:href="#block"/><use x="327" y="197" xlink:href="#block"/><use x="340" y="197" xlink:href="#block"/><use x="353" y="197" xlink:href="#block"/><use x="54" y="210" xlink:href="#block"/><use x="67" y="210" xlink:href="#block"/><use x="106" y="210" xlink:href="#block"/><use x="132" y="210" xlink:href="#block"/><use x="145" y="210" xlink:href="#block"/><use x="171" y="210" xlink:href="#block"/><use x="197" y="210" xlink:href="#block"/><use x="223" y="210" xlink:href="#block"/><use x="301" y="210" xlink:href="#block"/><use x="314" y="210" xlink:href="#block"/><use x="366" y="210" xlink:href="#block"/><use x="392" y="210" xlink:href="#block"/><use x="41" y="223" xlink:href="#block"/><use x="67" y="223" xlink:href="#block"/><use x="80" y="223" xlink:href="#block"/><use x="119" y="223" xlink:href="#block"/><use x="158" y="223" xlink:href="#block"/><use x="210" y="223" xlink:href="#block"/><use x="223" y="223" xlink:href="#block"/><use x="236" y="223" xlink:href="#block"/><use x="262" y="223" xlink:href="#block"/><use x="288" y="223" xlink:href="#block"/><use x="366" y="223" xlink:href="#block"/><use x="379" y="223" xlink:href="#block"/><use x="392" y="223" xlink:href="#block"/><use x="405" y="223" xlink:href="#block"/><use x="54" y="236" xlink:href="#block"/><use x="80" y="236" xlink:href="#block"/><use x="93" y="236" xlink:href="#block"/><use x="106" y="236" xlink:href="#block"/><use x="171" y="236" xlink:href="#block"/><use x="197" y="236" xlink:href="#block"/><use x="249" y="236" xlink:href="#block"/><use x="262" y="236" xlink:href="#block"/><use x="275" y="236" xlink:href="#block"/><use x="288" y="236" xlink:href="#block"/><use x="301" y="236" xlink:href="#block"/><use x="327" y="236" xlink:href="#block"/><use x="340" y="236" xlink:href="#block"/><use x="353" y="236" xlink:href="#block"/><use x="392" y="236" xlink:href="#block"/><use x="405" y="236" xlink:href="#block"/><use x="54" y="249" xlink:href="#block"/><use x="67" y="249" xlink:href="#block"/><use x="93" y="249" xlink:href="#block"/><use x="119" y="249" xlink:href="#block"/><use x="145" y="249" xlink:href="#block"/><use x="158" y="249" xlink:href="#block"/><use x="171" y="249" xlink:href="#block"/><use x="197" y="249" xlink:href="#block"/><use x="210" y="249" xlink:href="#block"/><use x="236" y="249" xlink:href="#block"/><use x="249" y="249" xlink:href="#block"/><use x="275" y="249" xlink:href="#block"/><use x="301" y="249" xlink:href="#block"/><use x="340" y="249" xlink:href="#block"/><use x="41" y="262" xlink:href="#block"/><use x="54" y="262" xlink:href="#block"/><use x="145" y="262" xlink:href="#block"/><use x="171" y="262" xlink:href="#block"/><use x="223" y="262" xlink:href="#block"/><use x="288" y="262" xlink:href="#block"/><use x="301" y="262" xlink:href="#block"/><use x="340" y="262" xlink:href="#block"/><use x="353" y="262" xlink:href="#block"/><use x="366" y="262" xlink:href="#block"/><use x="405" y="262" xlink:href="#block"/><use x="41" y="275" xlink:href="#block"/><use x="67" y="275" xlink:href="#block"/><use x="80" y="275" xlink:href="#block"/><use x="93" y="275" xlink:href="#block"/><use x="119" y="275" xlink:href="#block"/><use x="132" y="275" xlink:href="#block"/><use x="171" y="275" xlink:href="#block"/><use x="184" y="275" xlink:href="#block"/><use x="197" y="275" xlink:href="#block"/><use x="210" y="275" xlink:href="#block"/><use x="223" y="275" xlink:href="#block"/><use x="236" y="275" xlink:href="#block"/><use x="249" y="275" xlink:href="#block"/><use x="262" y="275" xlink:href="#block"/><use x="288" y="275" xlink:href="#block"/><use x="366" y="275" xlink:href="#block"/><use x="379" y="275" xlink:href="#block"/><use x="392" y="275" xlink:href="#block"/><use x="405" y="275" xlink:href="#block"/><use x="41" y="288" xlink:href="#block"/><use x="67" y="288" xlink:href="#block"/><use x="106" y="288" xlink:href="#block"/><use x="132" y="288" xlink:href="#block"/><use x="145" y="288" xlink:href="#block"/><use x="171" y="288" xlink:href="#block"/><use x="184" y="288" xlink:href="#block"/><use x="210" y="288" xlink:href="#block"/><use x="236" y="288" xlink:href="#block"/><use x="249" y="288" xlink:href="#block"/><use x="275" y="288" xlink:href="#block"/><use x="288" y="288" xlink:href="#block"/><use x="301" y="288" xlink:href="#block"/><use x="314" y="288" xlink:href="#block"/><use x="327" y="288" xlink:href="#block"/><use x="340" y="288" xlink:href="#block"/><use x="353" y="288" xlink:href="#block"/><use x="392" y="288" xlink:href="#block"/><use x="405" y="288" xlink:href="#block"/><use x="41" y="301" xlink:href="#block"/><use x="80" y="301" xlink:href="#block"/><use x="106" y="301" xlink:href="#block"/><use x="119" y="301" xlink:href="#block"/><use x="132" y="301" xlink:href="#block"/><use x="158" y="301" xlink:href="#block"/><use x="184" y="301" xlink:href="#block"/><use x="197" y="301" xlink:href="#block"/><use x="236" y="301" xlink:href="#block"/><use x="249" y="301" xlink:href="#block"/><use x="262" y="301" xlink:href="#block"/><use x="301" y="301" xlink:href="#block"/><use x="314" y="301" xlink:href="#block"/><use x="327" y="301" xlink:href="#block"/><use x="340" y="301" xlink:href="#block"/><use x="353" y="301" xlink:href="#block"/><use x="366" y="301" xlink:href="#block"/><use x="379" y="301" xlink:href="#block"/><use x="392" y="301" xlink:href="#block"/><use x="145" y="314" xlink:href="#block"/><use x="197" y="314" xlink:href="#block"/><use x="249" y="314" xlink:href="#block"/><use x="275" y="314" xlink:href="#block"/><use x="288" y="314" xlink:href="#block"/><use x="301" y="314" xlink:href="#block"/><use x="353" y="314" xlink:href="#block"/><use x="392" y="314" xlink:href="#block"/><use x="41" y="327" xlink:href="#block"/><use x="54" y="327" xlink:href="#block"/><use x="67" y="327" xlink:href="#block"/><use x="80" y="327" xlink:href="#block"/><use x="93" y="327" xlink:href="#block"/><use x="106" y="327" xlink:href="#block"/><use x="119" y="327" xlink:href="#block"/><use x="145" y="327" xlink:href="#block"/><use x="197" y="327" xlink:href="#block"/><use x="210" y="327" xlink:href="#block"/><use x="223" y="327" xlink:href="#block"/><use x="262" y="327" xlink:href="#block"/><use x="288" y="327" xlink:href="#block"/><use x="301" y="327" xlink:href="#block"/><use x="327" y="327" xlink:href="#block"/><use x="353" y="327" xlink:href="#block"/><use x="366" y="327" xlink:href="#block"/><use x="379" y="327" xlink:href="#block"/><use x="41" y="340" xlink:href="#block"/><use x="119" y="340" xlink:href="#block"/><use x="197" y="340" xlink:href="#block"/><use x="210" y="340" xlink:href="#block"/><use x="262" y="340" xlink:href="#block"/><use x="275" y="340" xlink:href="#block"/><use x="301" y="340" xlink:href="#block"/><use x="353" y="340" xlink:href="#block"/><use x="379" y="340" xlink:href="#block"/><use x="392" y="340" xlink:href="#block"/><use x="405" y="340" xlink:href="#block"/><use x="41" y="353" xlink:href="#block"/><use x="67" y="353" xlink:href="#block"/><use x="80" y="353" xlink:href="#block"/><use x="93" y="353" xlink:href="#block"/><use x="119" y="353" xlink:href="#block"/><use x="145" y="353" xlink:href="#block"/><use x="158" y="353" xlink:href="#block"/><use x="171" y="353" xlink:href="#block"/><use x="236" y="353" xlink:href="#block"/><use x="275" y="353" xlink:href="#block"/><use x="301" y="353" xlink:href="#block"/><use x="314" y="353" xlink:href="#block"/><use x="327" y="353" xlink:href="#block"/><use x="340" y="353" xlink:href="#block"/><use x="353" y="353" xlink:href="#block"/><use x="379" y="353" xlink:href="#block"/><use x="392" y="353" xlink:href="#block"/><use x="405" y="353" xlink:href="#block"/><use x="41" y="366" xlink:href="#block"/><use x="67" y="366" xlink:href="#block"/><use x="80" y="366" xlink:href="#block"/><use x="93" y="366" xlink:href="#block"/><use x="119" y="366" xlink:href="#block"/><use x="145" y="366" xlink:href="#block"/><use x="171" y="366" xlink:href="#block"/><use x="223" y="366" xlink:href="#block"/><use x="236" y="366" xlink:href="#block"/><use x="249" y="366" xlink:href="#block"/><use x="301" y="366" xlink:href="#block"/><use x="314" y="366" xlink:href="#block"/><use x="340" y="366" xlink:href="#block"/><use x="41" y="379" xlink:href="#block"/><use x="67" y="379" xlink:href="#block"/><use x="80" y="379" xlink:href="#block"/><use x="93" y="379" xlink:href="#block"/><use x="119" y="379" xlink:href="#block"/><use x="145" y="379" xlink:href="#block"/><use x="197" y="379" xlink:href="#block"/><use x="210" y="379" xlink:href="#block"/><use x="223" y="379" xlink:href="#block"/><use x="236" y="379" xlink:href="#block"/><use x="262" y="379" xlink:href="#block"/><use x="288" y="379" xlink:href="#block"/><use x="314" y="379" xlink:href="#block"/><use x="327" y="379" xlink:href="#block"/><use x="340" y="379" xlink:href="#block"/><use x="379" y="379" xlink:href="#block"/><use x="392" y="379" xlink:href="#block"/><use x="41" y="392" xlink:href="#block"/><use x="119" y="392" xlink:href="#block"/><use x="145" y="392" xlink:href="#block"/><use x="158" y="392" xlink:href="#block"/><use x="171" y="392" xlink:href="#block"/><use x="184" y="392" xlink:href="#block"/><use x="210" y="392" xlink:href="#block"/><use x="249" y="392" xlink:href="#block"/><use x="275" y="392" xlink:href="#block"/><use x="301" y="392" xlink:href="#block"/><use x="314" y="392" xlink:href="#block"/><use x="366" y="392" xlink:href="#block"/><use x="379" y="392" xlink:href="#block"/><use x="405" y="392" xlink:href="#block"/><use x="41" y="405" xlink:href="#block"/><use x="54" y="405" xlink:href="#block"/><use x="67" y="405" xlink:href="#block"/><use x="80" y="405" xlink:href="#block"/><use x="93" y="405" xlink:href="#block"/><use x="106" y="405" xlink:href="#block"/><use x="119" y="405" xlink:href="#block"/><use x="145" y="405" xlink:href="#block"/><use x="171" y="405" xlink:href="#block"/><use x="197" y="405" xlink:href="#block"/><use x="210" y="405" xlink:href="#block"/><use x="223" y="405" xlink:href="#block"/><use x="236" y="405" xlink:href="#block"/><use x="249" y="405" xlink:href="#block"/><use x="288" y="405" xlink:href="#block"/><use x="301" y="405" xlink:href="#block"/><use x="314" y="405" xlink:href="#block"/><use x="327" y="405" xlink:href="#block"/><use x="353" y="405" xlink:href="#block"/><use x="366" y="405" xlink:href="#block"/><use x="379" y="405" xlink:href="#block"/></svg>
