<svg xmlns="http://www.w3.org/2000/svg" xmlns:xlink="http://www.w3.org/1999/xlink" xmlns:lucid="lucid" width="1020" height="660"><g transform="translate(-39.999999999999886 0)" lucid:page-tab-id="0_0"><path d="M428 20c50.8 0 92 40.3 92 90s-41.2 90-92 90H152c-50.8 0-92-40.3-92-90s41.2-90 92-90z" stroke="#3a414a" stroke-width="3" fill="#518eff" fill-opacity=".59"/><use xlink:href="#a" transform="matrix(1,0,0,1,65,25) translate(151.02660493827165 46.27430555555554)"/><use xlink:href="#b" transform="matrix(1,0,0,1,65,25) translate(187.6932716049383 46.27430555555554)"/><use xlink:href="#c" transform="matrix(1,0,0,1,65,25) translate(280.03895061728394 46.27430555555554)"/><use xlink:href="#d" transform="matrix(1,0,0,1,65,25) translate(100.91049382716055 75.60763888888887)"/><use xlink:href="#e" transform="matrix(1,0,0,1,65,25) translate(237.86728395061726 75.60763888888887)"/><use xlink:href="#f" transform="matrix(1,0,0,1,65,25) translate(271.8179012345679 75.60763888888887)"/><use xlink:href="#g" transform="matrix(1,0,0,1,65,25) translate(90.11419753086429 104.94097222222219)"/><use xlink:href="#h" transform="matrix(1,0,0,1,65,25) translate(115.84876543209884 104.94097222222219)"/><use xlink:href="#i" transform="matrix(1,0,0,1,65,25) translate(229.71913580246914 104.94097222222219)"/><use xlink:href="#j" transform="matrix(1,0,0,1,65,25) translate(248.73148148148147 104.94097222222219)"/><use xlink:href="#k" transform="matrix(1,0,0,1,65,25) translate(274.46604938271605 104.94097222222219)"/><use xlink:href="#l" transform="matrix(1,0,0,1,65,25) translate(170.71796296296299 134.27430555555551)"/><use xlink:href="#m" transform="matrix(1,0,0,1,65,25) translate(196.45253086419757 134.27430555555551)"/><path d="M428 240c50.8 0 92 40.3 92 90s-41.2 90-92 90H152c-50.8 0-92-40.3-92-90s41.2-90 92-90z" stroke="#3a414a" stroke-width="3" fill="#518eff" fill-opacity=".59"/><use xlink:href="#n" transform="matrix(1,0,0,1,64.99999999999989,245) translate(50.80438271604945 62.30555555555554)"/><use xlink:href="#o" transform="matrix(1,0,0,1,64.99999999999989,245) translate(79.25500000000005 62.30555555555554)"/><use xlink:href="#p" transform="matrix(1,0,0,1,64.99999999999989,245) translate(157.95253086419754 62.30555555555554)"/><use xlink:href="#q" transform="matrix(1,0,0,1,64.99999999999989,245) translate(191.90314814814815 62.30555555555554)"/><use xlink:href="#r" transform="matrix(1,0,0,1,64.99999999999989,245) translate(217.6377160493827 62.30555555555554)"/><use xlink:href="#s" transform="matrix(1,0,0,1,64.99999999999989,245) translate(30.82716049382725 91.63888888888886)"/><use xlink:href="#t" transform="matrix(1,0,0,1,64.99999999999989,245) translate(119.03086419753092 91.63888888888886)"/><use xlink:href="#u" transform="matrix(1,0,0,1,64.99999999999989,245) translate(156.9876543209877 91.63888888888886)"/><use xlink:href="#v" transform="matrix(1,0,0,1,64.99999999999989,245) translate(249.19753086419752 91.63888888888886)"/><use xlink:href="#w" transform="matrix(1,0,0,1,64.99999999999989,245) translate(283.14814814814815 91.63888888888886)"/><use xlink:href="#x" transform="matrix(1,0,0,1,64.99999999999989,245) translate(321.1049382716049 91.63888888888886)"/><use xlink:href="#y" transform="matrix(1,0,0,1,64.99999999999989,245) translate(66.28586419753096 120.97222222222217)"/><use xlink:href="#t" transform="matrix(1,0,0,1,64.99999999999989,245) translate(85.29820987654328 120.97222222222217)"/><use xlink:href="#z" transform="matrix(1,0,0,1,64.99999999999989,245) translate(123.25500000000005 120.97222222222217)"/><use xlink:href="#p" transform="matrix(1,0,0,1,64.99999999999989,245) translate(239.9093209876543 120.97222222222217)"/><use xlink:href="#A" transform="matrix(1,0,0,1,64.99999999999989,245) translate(273.8599382716049 120.97222222222217)"/><path d="M948 240c50.8 0 92 40.3 92 90s-41.2 90-92 90H672c-50.8 0-92-40.3-92-90s41.2-90 92-90z" stroke="#3a414a" stroke-width="3" fill="#518eff" fill-opacity=".59"/><g><use xlink:href="#a" transform="matrix(1,0,0,1,585,245) translate(60.78586419753095 62.30555555555554)"/><use xlink:href="#B" transform="matrix(1,0,0,1,585,245) translate(97.4525308641976 62.30555555555554)"/><use xlink:href="#o" transform="matrix(1,0,0,1,585,245) translate(143.6253703703704 62.30555555555554)"/><use xlink:href="#p" transform="matrix(1,0,0,1,585,245) translate(222.3229012345679 62.30555555555554)"/><use xlink:href="#C" transform="matrix(1,0,0,1,585,245) translate(256.2735185185185 62.30555555555554)"/><use xlink:href="#D" transform="matrix(1,0,0,1,585,245) translate(377.0019135802468 62.30555555555554)"/><use xlink:href="#E" transform="matrix(1,0,0,1,585,245) translate(57.88580246913591 91.63888888888886)"/><use xlink:href="#F" transform="matrix(1,0,0,1,585,245) translate(130.1327160493828 91.63888888888886)"/><use xlink:href="#G" transform="matrix(1,0,0,1,585,245) translate(185.74382716049388 91.63888888888886)"/><use xlink:href="#q" transform="matrix(1,0,0,1,585,245) translate(275.23765432098764 91.63888888888886)"/><use xlink:href="#H" transform="matrix(1,0,0,1,585,245) translate(300.9722222222222 91.63888888888886)"/><use xlink:href="#I" transform="matrix(1,0,0,1,585,245) translate(360.58950617283944 91.63888888888886)"/><use xlink:href="#J" transform="matrix(1,0,0,1,585,245) translate(126.03895061728402 120.97222222222217)"/><use xlink:href="#K" transform="matrix(1,0,0,1,585,245) translate(180.22413580246916 120.97222222222217)"/><use xlink:href="#L" transform="matrix(1,0,0,1,585,245) translate(205.95870370370372 120.97222222222217)"/><use xlink:href="#M" transform="matrix(1,0,0,1,585,245) translate(272.434012345679 120.97222222222217)"/></g><path d="M948 20c50.8 0 92 40.3 92 90s-41.2 90-92 90H672c-50.8 0-92-40.3-92-90s41.2-90 92-90z" stroke="#3a414a" stroke-width="3" fill="#518eff" fill-opacity=".59"/><g><use xlink:href="#N" transform="matrix(1,0,0,1,585,25) translate(56.03277777777789 51.61805555555554)"/><use xlink:href="#O" transform="matrix(1,0,0,1,585,25) translate(146.95253086419757 51.61805555555554)"/><use xlink:href="#P" transform="matrix(1,0,0,1,585,25) translate(267.68092592592586 51.61805555555554)"/><use xlink:href="#Q" transform="matrix(1,0,0,1,585,25) translate(301.6315432098765 51.61805555555554)"/><use xlink:href="#R" transform="matrix(1,0,0,1,585,25) translate(381.7549999999999 51.61805555555554)"/><use xlink:href="#S" transform="matrix(1,0,0,1,585,25) translate(31.50617283950632 78.01805555555552)"/><use xlink:href="#T" transform="matrix(1,0,0,1,585,25) translate(184.8271604938272 78.01805555555552)"/><use xlink:href="#U" transform="matrix(1,0,0,1,585,25) translate(222.78395061728395 78.01805555555552)"/><use xlink:href="#V" transform="matrix(1,0,0,1,585,25) translate(339.4382716049382 78.01805555555552)"/><use xlink:href="#W" transform="matrix(1,0,0,1,585,25) translate(372.0308641975307 78.01805555555552)"/><use xlink:href="#X" transform="matrix(1,0,0,1,585,25) translate(55.00925925925938 104.41805555555551)"/><use xlink:href="#Y" transform="matrix(1,0,0,1,585,25) translate(88.95987654320997 104.41805555555551)"/><use xlink:href="#Z" transform="matrix(1,0,0,1,585,25) translate(174.37962962962968 104.41805555555551)"/><use xlink:href="#aa" transform="matrix(1,0,0,1,585,25) translate(243.5030864197531 104.41805555555551)"/><use xlink:href="#ab" transform="matrix(1,0,0,1,585,25) translate(277.4537037037037 104.41805555555551)"/><use xlink:href="#ac" transform="matrix(1,0,0,1,585,25) translate(303.1882716049382 104.41805555555551)"/><use xlink:href="#ad" transform="matrix(1,0,0,1,585,25) translate(139.55129629629636 130.8180555555555)"/><use xlink:href="#ae" transform="matrix(1,0,0,1,585,25) translate(173.50191358024696 130.8180555555555)"/><use xlink:href="#af" transform="matrix(1,0,0,1,585,25) translate(199.23648148148152 130.8180555555555)"/><use xlink:href="#ag" transform="matrix(1,0,0,1,585,25) translate(265.71179012345675 130.8180555555555)"/></g><path d="M290 203v14.88" stroke="#000" stroke-width="3" fill="none"/><path d="M291.5 203.04h-3v-1.54h3z" stroke="#000" stroke-width=".05"/><path d="M290 233.65l-4.64-14.27h9.28z" stroke="#000" stroke-width="3"/><path d="M523 330h34.88" stroke="#000" stroke-width="3" fill="none"/><path d="M523.04 331.5h-1.58l.04-1.5-.04-1.5h1.58z" stroke="#000" stroke-width=".05"/><path d="M573.65 330l-14.27 4.64v-9.28z" stroke="#000" stroke-width="3"/><path d="M810 237v-14.88" stroke="#000" stroke-width="3" fill="none"/><path d="M811.5 238.5h-3v-1.54h3z" stroke="#000" stroke-width=".05"/><path d="M810 206.35l4.64 14.27h-9.28z" stroke="#000" stroke-width="3"/><path d="M577 110.04l-.55.02-1.85.16-1.7.25-1.56.33-1.45.4-1.37.45-1.3.52-1.22.58-1.17.64-1.14.7-1.12.8-1.08.86-1.07.97-1.06 1.08-1.05 1.2-1.06 1.38-1.06 1.55-1.08 1.8-1.1 2.1-1.1 2.47-1.16 3.02-1.2 3.77-1.22 4.9-1.3 6.96-1.55 12.15L543 195l-1.48 7.84-1.72 6.57-1.94 5.78-2.2 5.32-2.54 5.1-3.04 5.2-3.84 5.63-5.4 6.84-9.38 10.3" stroke="#000" stroke-width="3" stroke-linejoin="round" fill="none"/><path d="M578.5 110l.04 1.5-1.54.04-.08-3 1.62-.04z" stroke="#000" stroke-width=".05"/><path d="M500.4 264.8l6.7-13.42 6.6 6.5z" stroke="#000" stroke-width="3"/><path d="M668 460c50.8 0 92 40.3 92 90s-41.2 90-92 90H392c-50.8 0-92-40.3-92-90s41.2-90 92-90z" stroke="#3a414a" stroke-width="3" fill="#518eff" fill-opacity=".59"/><g><use xlink:href="#ah" transform="matrix(1,0,0,1,305,465) translate(77.6790123456791 78.33680555555554)"/><use xlink:href="#ai" transform="matrix(1,0,0,1,305,465) translate(106.1296296296297 78.33680555555554)"/><use xlink:href="#e" transform="matrix(1,0,0,1,305,465) translate(165.74691358024697 78.33680555555554)"/><use xlink:href="#aj" transform="matrix(1,0,0,1,305,465) translate(199.69753086419757 78.33680555555554)"/><use xlink:href="#ak" transform="matrix(1,0,0,1,305,465) translate(237.65432098765433 78.33680555555554)"/><use xlink:href="#al" transform="matrix(1,0,0,1,305,465) translate(347.5185185185185 78.33680555555554)"/><use xlink:href="#am" transform="matrix(1,0,0,1,305,465) translate(61.56672839506181 107.67013888888886)"/><use xlink:href="#an" transform="matrix(1,0,0,1,305,465) translate(170.07290123456795 107.67013888888886)"/><use xlink:href="#j" transform="matrix(1,0,0,1,305,465) translate(204.02351851851853 107.67013888888886)"/><use xlink:href="#ao" transform="matrix(1,0,0,1,305,465) translate(229.75808641975308 107.67013888888886)"/><use xlink:href="#ap" transform="matrix(1,0,0,1,305,465) translate(321.96796296296293 107.67013888888886)"/></g><path d="M132.9 421.1l-.44 2.6-.52 3.97-.33 3.83-.16 3.72v3.63l.13 3.54.28 3.47.42 3.4.56 3.38.7 3.32.83 3.3.98 3.26 1.12 3.25 1.27 3.24 1.43 3.24 1.6 3.24 1.77 3.25 1.97 3.28 2.18 3.3 2.4 3.3 2.63 3.36 2.92 3.37 3.2 3.42 3.5 3.45 3.85 3.5 4.24 3.5 4.66 3.56 5.1 3.57 5.57 3.56 6.1 3.54 6.63 3.5 7.2 3.4 7.77 3.3 8.32 3.12 8.84 2.9 9.28 2.6 9.66 2.3 9.92 1.93 10.02 1.5 9.43 1.03" stroke="#000" stroke-width="3" stroke-linejoin="round" fill="none"/><path d="M134.64 419.9l-.26 1.48-2.96-.5.27-1.55z" stroke="#000" stroke-width=".05"/><path d="M293.65 549.78l-14.46 3.98.4-9.26z" stroke="#000" stroke-width="3"/><defs><path d="M185-189c-5-48-123-54-124 2 14 75 158 14 163 119 3 78-121 87-175 55-17-10-28-26-33-46l33-7c5 56 141 63 141-1 0-78-155-14-162-118-5-82 145-84 179-34 5 7 8 16 11 25" id="aq"/><path d="M100-194c63 0 86 42 84 106H49c0 40 14 67 53 68 26 1 43-12 49-29l28 8c-11 28-37 45-77 45C44 4 14-33 15-96c1-61 26-98 85-98zm52 81c6-60-76-77-97-28-3 7-6 17-6 28h103" id="ar"/><g id="a"><use transform="matrix(0.0679012345679012,0,0,0.0679012345679012,0,0)" xlink:href="#aq"/><use transform="matrix(0.0679012345679012,0,0,0.0679012345679012,16.29629629629629,0)" xlink:href="#ar"/></g><path d="M96-169c-40 0-48 33-48 73s9 75 48 75c24 0 41-14 43-38l32 2c-6 37-31 61-74 61-59 0-76-41-82-99-10-93 101-131 147-64 4 7 5 14 7 22l-32 3c-4-21-16-35-41-35" id="as"/><path d="M100-194c62-1 85 37 85 99 1 63-27 99-86 99S16-35 15-95c0-66 28-99 85-99zM99-20c44 1 53-31 53-75 0-43-8-75-51-75s-53 32-53 75 10 74 51 75" id="at"/><path d="M117-194c89-4 53 116 60 194h-32v-121c0-31-8-49-39-48C34-167 62-67 57 0H25l-1-190h30c1 10-1 24 2 32 11-22 29-35 61-36" id="au"/><path d="M59-47c-2 24 18 29 38 22v24C64 9 27 4 27-40v-127H5v-23h24l9-43h21v43h35v23H59v120" id="av"/><path d="M141-36C126-15 110 5 73 4 37 3 15-17 15-53c-1-64 63-63 125-63 3-35-9-54-41-54-24 1-41 7-42 31l-33-3c5-37 33-52 76-52 45 0 72 20 72 64v82c-1 20 7 32 28 27v20c-31 9-61-2-59-35zM48-53c0 20 12 33 32 33 41-3 63-29 60-74-43 2-92-5-92 41" id="aw"/><g id="b"><use transform="matrix(0.0679012345679012,0,0,0.0679012345679012,0,0)" xlink:href="#as"/><use transform="matrix(0.0679012345679012,0,0,0.0679012345679012,12.222222222222216,0)" xlink:href="#at"/><use transform="matrix(0.0679012345679012,0,0,0.0679012345679012,25.802469135802454,0)" xlink:href="#au"/><use transform="matrix(0.0679012345679012,0,0,0.0679012345679012,39.38271604938269,0)" xlink:href="#ar"/><use transform="matrix(0.0679012345679012,0,0,0.0679012345679012,52.96296296296293,0)" xlink:href="#as"/><use transform="matrix(0.0679012345679012,0,0,0.0679012345679012,65.18518518518515,0)" xlink:href="#av"/><use transform="matrix(0.0679012345679012,0,0,0.0679012345679012,71.97530864197526,0)" xlink:href="#aw"/></g><path d="M24 0v-261h32V0H24" id="ax"/><g id="c"><use transform="matrix(0.0679012345679012,0,0,0.0679012345679012,0,0)" xlink:href="#ar"/><use transform="matrix(0.0679012345679012,0,0,0.0679012345679012,13.58024691358024,0)" xlink:href="#ax"/></g><path d="M210-169c-67 3-38 105-44 169h-31v-121c0-29-5-50-35-48C34-165 62-65 56 0H25l-1-190h30c1 10-1 24 2 32 10-44 99-50 107 0 11-21 27-35 58-36 85-2 47 119 55 194h-31v-121c0-29-5-49-35-48" id="ay"/><path d="M115-194c55 1 70 41 70 98S169 2 115 4C84 4 66-9 55-30l1 105H24l-1-265h31l2 30c10-21 28-34 59-34zm-8 174c40 0 45-34 45-75s-6-73-45-74c-42 0-51 32-51 76 0 43 10 73 51 73" id="az"/><path d="M114-163C36-179 61-72 57 0H25l-1-190h30c1 12-1 29 2 39 6-27 23-49 58-41v29" id="aA"/><path d="M85-194c31 0 48 13 60 33l-1-100h32l1 261h-30c-2-10 0-23-3-31C134-8 116 4 85 4 32 4 16-35 15-94c0-66 23-100 70-100zm9 24c-40 0-46 34-46 75 0 40 6 74 45 74 42 0 51-32 51-76 0-42-9-74-50-73" id="aB"/><g id="d"><use transform="matrix(0.0679012345679012,0,0,0.0679012345679012,0,0)" xlink:href="#as"/><use transform="matrix(0.0679012345679012,0,0,0.0679012345679012,12.222222222222216,0)" xlink:href="#at"/><use transform="matrix(0.0679012345679012,0,0,0.0679012345679012,25.802469135802454,0)" xlink:href="#ay"/><use transform="matrix(0.0679012345679012,0,0,0.0679012345679012,46.104938271604915,0)" xlink:href="#az"/><use transform="matrix(0.0679012345679012,0,0,0.0679012345679012,59.685185185185155,0)" xlink:href="#aw"/><use transform="matrix(0.0679012345679012,0,0,0.0679012345679012,73.26543209876539,0)" xlink:href="#aA"/><use transform="matrix(0.0679012345679012,0,0,0.0679012345679012,81.34567901234563,0)" xlink:href="#aw"/><use transform="matrix(0.0679012345679012,0,0,0.0679012345679012,94.92592592592587,0)" xlink:href="#aB"/><use transform="matrix(0.0679012345679012,0,0,0.0679012345679012,108.5061728395061,0)" xlink:href="#at"/><use transform="matrix(0.0679012345679012,0,0,0.0679012345679012,122.08641975308635,0)" xlink:href="#aA"/></g><g id="e"><use transform="matrix(0.0679012345679012,0,0,0.0679012345679012,0,0)" xlink:href="#aB"/><use transform="matrix(0.0679012345679012,0,0,0.0679012345679012,13.58024691358024,0)" xlink:href="#ar"/></g><path d="M108 0H70L1-190h34L89-25l56-165h34" id="aC"/><path d="M24-231v-30h32v30H24zM-9 49c24 4 33-6 33-30v-209h32V24c2 40-23 58-65 49V49" id="aD"/><path d="M68-38c1 34 0 65-14 84H32c9-13 17-26 17-46H33v-38h35" id="aE"/><g id="f"><use transform="matrix(0.0679012345679012,0,0,0.0679012345679012,0,0)" xlink:href="#aC"/><use transform="matrix(0.0679012345679012,0,0,0.0679012345679012,12.222222222222216,0)" xlink:href="#at"/><use transform="matrix(0.0679012345679012,0,0,0.0679012345679012,25.802469135802454,0)" xlink:href="#ax"/><use transform="matrix(0.0679012345679012,0,0,0.0679012345679012,31.16666666666665,0)" xlink:href="#av"/><use transform="matrix(0.0679012345679012,0,0,0.0679012345679012,37.95679012345677,0)" xlink:href="#aw"/><use transform="matrix(0.0679012345679012,0,0,0.0679012345679012,51.53703703703701,0)" xlink:href="#aD"/><use transform="matrix(0.0679012345679012,0,0,0.0679012345679012,56.901234567901206,0)" xlink:href="#ar"/><use transform="matrix(0.0679012345679012,0,0,0.0679012345679012,70.48148148148144,0)" xlink:href="#aE"/></g><g id="g"><use transform="matrix(0.0679012345679012,0,0,0.0679012345679012,0,0)" xlink:href="#ar"/><use transform="matrix(0.0679012345679012,0,0,0.0679012345679012,13.58024691358024,0)" xlink:href="#ax"/></g><path d="M24-231v-30h32v30H24zM24 0v-190h32V0H24" id="aF"/><path d="M100-194c62-1 85 37 85 99 1 63-27 99-86 99S16-35 15-95c0-66 28-99 85-99zM99-20c44 1 53-31 53-75 0-43-8-75-51-75s-53 32-53 75 10 74 51 75zM76-211c8-23 27-35 38-54h36v5l-58 49H76" id="aG"/><path d="M101-234c-31-9-42 10-38 44h38v23H63V0H32v-167H5v-23h27c-7-52 17-82 69-68v24" id="aH"/><g id="h"><use transform="matrix(0.0679012345679012,0,0,0.0679012345679012,0,0)" xlink:href="#ay"/><use transform="matrix(0.0679012345679012,0,0,0.0679012345679012,20.30246913580246,0)" xlink:href="#aF"/><use transform="matrix(0.0679012345679012,0,0,0.0679012345679012,25.666666666666657,0)" xlink:href="#as"/><use transform="matrix(0.0679012345679012,0,0,0.0679012345679012,37.88888888888887,0)" xlink:href="#aA"/><use transform="matrix(0.0679012345679012,0,0,0.0679012345679012,45.96913580246911,0)" xlink:href="#aG"/><use transform="matrix(0.0679012345679012,0,0,0.0679012345679012,59.549382716049344,0)" xlink:href="#aH"/><use transform="matrix(0.0679012345679012,0,0,0.0679012345679012,66.33950617283946,0)" xlink:href="#at"/><use transform="matrix(0.0679012345679012,0,0,0.0679012345679012,79.9197530864197,0)" xlink:href="#au"/><use transform="matrix(0.0679012345679012,0,0,0.0679012345679012,93.49999999999994,0)" xlink:href="#at"/></g><path d="M179-190L93 31C79 59 56 82 12 73V49c39 6 53-20 64-50L1-190h34L92-34l54-156h33" id="aI"/><use transform="matrix(0.0679012345679012,0,0,0.0679012345679012,0,0)" xlink:href="#aI" id="i"/><g id="j"><use transform="matrix(0.0679012345679012,0,0,0.0679012345679012,0,0)" xlink:href="#ax"/><use transform="matrix(0.0679012345679012,0,0,0.0679012345679012,5.364197530864195,0)" xlink:href="#aw"/></g><g id="k"><use transform="matrix(0.0679012345679012,0,0,0.0679012345679012,0,0)" xlink:href="#az"/><use transform="matrix(0.0679012345679012,0,0,0.0679012345679012,13.58024691358024,0)" xlink:href="#aw"/><use transform="matrix(0.0679012345679012,0,0,0.0679012345679012,27.16049382716048,0)" xlink:href="#au"/><use transform="matrix(0.0679012345679012,0,0,0.0679012345679012,40.74074074074072,0)" xlink:href="#av"/><use transform="matrix(0.0679012345679012,0,0,0.0679012345679012,47.53086419753084,0)" xlink:href="#aw"/><use transform="matrix(0.0679012345679012,0,0,0.0679012345679012,61.11111111111107,0)" xlink:href="#ax"/><use transform="matrix(0.0679012345679012,0,0,0.0679012345679012,66.47530864197527,0)" xlink:href="#ax"/><use transform="matrix(0.0679012345679012,0,0,0.0679012345679012,71.83950617283946,0)" xlink:href="#aw"/></g><g id="l"><use transform="matrix(0.0679012345679012,0,0,0.0679012345679012,0,0)" xlink:href="#aw"/><use transform="matrix(0.0679012345679012,0,0,0.0679012345679012,13.58024691358024,0)" xlink:href="#ax"/></g><path d="M30 0v-248h187v28H63v79h144v27H63v87h162V0H30" id="aJ"/><path d="M30-248c87 1 191-15 191 75 0 78-77 80-158 76V0H30v-248zm33 125c57 0 124 11 124-50 0-59-68-47-124-48v98" id="aK"/><path d="M126-127c33 6 58 20 58 59 0 88-139 92-164 29-3-8-5-16-6-25l32-3c6 27 21 44 54 44 32 0 52-15 52-46 0-38-36-46-79-43v-28c39 1 72-4 72-42 0-27-17-43-46-43-28 0-47 15-49 41l-32-3c6-42 35-63 81-64 48-1 79 21 79 65 0 36-21 52-52 59" id="aL"/><path d="M101-251c82-7 93 87 43 132L82-64C71-53 59-42 53-27h129V0H18c2-99 128-94 128-182 0-28-16-43-45-43s-46 15-49 41l-32-3c6-41 34-60 81-64" id="aM"/><path d="M33 0v-38h34V0H33" id="aN"/><g id="m"><use transform="matrix(0.0679012345679012,0,0,0.0679012345679012,0,0)" xlink:href="#aJ"/><use transform="matrix(0.0679012345679012,0,0,0.0679012345679012,16.29629629629629,0)" xlink:href="#aq"/><use transform="matrix(0.0679012345679012,0,0,0.0679012345679012,32.59259259259258,0)" xlink:href="#aK"/><use transform="matrix(0.0679012345679012,0,0,0.0679012345679012,48.88888888888887,0)" xlink:href="#aL"/><use transform="matrix(0.0679012345679012,0,0,0.0679012345679012,62.46913580246911,0)" xlink:href="#aM"/><use transform="matrix(0.0679012345679012,0,0,0.0679012345679012,76.04938271604935,0)" xlink:href="#aN"/></g><g id="n"><use transform="matrix(0.0679012345679012,0,0,0.0679012345679012,0,0)" xlink:href="#aJ"/><use transform="matrix(0.0679012345679012,0,0,0.0679012345679012,16.29629629629629,0)" xlink:href="#ax"/></g><path d="M177-190C167-65 218 103 67 71c-23-6-38-20-44-43l32-5c15 47 100 32 89-28v-30C133-14 115 1 83 1 29 1 15-40 15-95c0-56 16-97 71-98 29-1 48 16 59 35 1-10 0-23 2-32h30zM94-22c36 0 50-32 50-73 0-42-14-75-50-75-39 0-46 34-46 75s6 73 46 73" id="aO"/><g id="o"><use transform="matrix(0.0679012345679012,0,0,0.0679012345679012,0,0)" xlink:href="#as"/><use transform="matrix(0.0679012345679012,0,0,0.0679012345679012,12.222222222222216,0)" xlink:href="#aG"/><use transform="matrix(0.0679012345679012,0,0,0.0679012345679012,25.802469135802454,0)" xlink:href="#aB"/><use transform="matrix(0.0679012345679012,0,0,0.0679012345679012,39.38271604938269,0)" xlink:href="#aF"/><use transform="matrix(0.0679012345679012,0,0,0.0679012345679012,44.74691358024689,0)" xlink:href="#aO"/><use transform="matrix(0.0679012345679012,0,0,0.0679012345679012,58.32716049382712,0)" xlink:href="#at"/></g><g id="p"><use transform="matrix(0.0679012345679012,0,0,0.0679012345679012,0,0)" xlink:href="#ar"/><use transform="matrix(0.0679012345679012,0,0,0.0679012345679012,13.58024691358024,0)" xlink:href="#au"/></g><g id="q"><use transform="matrix(0.0679012345679012,0,0,0.0679012345679012,0,0)" xlink:href="#ar"/><use transform="matrix(0.0679012345679012,0,0,0.0679012345679012,13.58024691358024,0)" xlink:href="#ax"/></g><g id="r"><use transform="matrix(0.0679012345679012,0,0,0.0679012345679012,0,0)" xlink:href="#ay"/><use transform="matrix(0.0679012345679012,0,0,0.0679012345679012,20.30246913580246,0)" xlink:href="#aF"/><use transform="matrix(0.0679012345679012,0,0,0.0679012345679012,25.666666666666657,0)" xlink:href="#as"/><use transform="matrix(0.0679012345679012,0,0,0.0679012345679012,37.88888888888887,0)" xlink:href="#aA"/><use transform="matrix(0.0679012345679012,0,0,0.0679012345679012,45.96913580246911,0)" xlink:href="#at"/><use transform="matrix(0.0679012345679012,0,0,0.0679012345679012,59.549382716049344,0)" xlink:href="#as"/><use transform="matrix(0.0679012345679012,0,0,0.0679012345679012,71.77160493827157,0)" xlink:href="#at"/><use transform="matrix(0.0679012345679012,0,0,0.0679012345679012,85.35185185185182,0)" xlink:href="#au"/><use transform="matrix(0.0679012345679012,0,0,0.0679012345679012,98.93209876543203,0)" xlink:href="#av"/><use transform="matrix(0.0679012345679012,0,0,0.0679012345679012,105.72222222222217,0)" xlink:href="#aA"/><use transform="matrix(0.0679012345679012,0,0,0.0679012345679012,113.80246913580241,0)" xlink:href="#at"/><use transform="matrix(0.0679012345679012,0,0,0.0679012345679012,127.38271604938265,0)" xlink:href="#ax"/><use transform="matrix(0.0679012345679012,0,0,0.0679012345679012,132.74691358024685,0)" xlink:href="#aw"/><use transform="matrix(0.0679012345679012,0,0,0.0679012345679012,146.32716049382708,0)" xlink:href="#aB"/><use transform="matrix(0.0679012345679012,0,0,0.0679012345679012,159.90740740740733,0)" xlink:href="#at"/><use transform="matrix(0.0679012345679012,0,0,0.0679012345679012,173.4876543209876,0)" xlink:href="#aA"/></g><path d="M84 4C-5 8 30-112 23-190h32v120c0 31 7 50 39 49 72-2 45-101 50-169h31l1 190h-30c-1-10 1-25-2-33-11 22-28 36-60 37" id="aP"/><g id="s"><use transform="matrix(0.0679012345679012,0,0,0.0679012345679012,0,0)" xlink:href="#av"/><use transform="matrix(0.0679012345679012,0,0,0.0679012345679012,6.79012345679012,0)" xlink:href="#aA"/><use transform="matrix(0.0679012345679012,0,0,0.0679012345679012,14.870370370370363,0)" xlink:href="#aw"/><use transform="matrix(0.0679012345679012,0,0,0.0679012345679012,28.450617283950603,0)" xlink:href="#aB"/><use transform="matrix(0.0679012345679012,0,0,0.0679012345679012,42.030864197530846,0)" xlink:href="#aP"/><use transform="matrix(0.0679012345679012,0,0,0.0679012345679012,55.611111111111086,0)" xlink:href="#as"/><use transform="matrix(0.0679012345679012,0,0,0.0679012345679012,67.8333333333333,0)" xlink:href="#ar"/></g><path d="M135-143c-3-34-86-38-87 0 15 53 115 12 119 90S17 21 10-45l28-5c4 36 97 45 98 0-10-56-113-15-118-90-4-57 82-63 122-42 12 7 21 19 24 35" id="aQ"/><g id="t"><use transform="matrix(0.0679012345679012,0,0,0.0679012345679012,0,0)" xlink:href="#ax"/><use transform="matrix(0.0679012345679012,0,0,0.0679012345679012,5.364197530864195,0)" xlink:href="#aw"/><use transform="matrix(0.0679012345679012,0,0,0.0679012345679012,18.944444444444436,0)" xlink:href="#aQ"/></g><g id="u"><use transform="matrix(0.0679012345679012,0,0,0.0679012345679012,0,0)" xlink:href="#ax"/><use transform="matrix(0.0679012345679012,0,0,0.0679012345679012,5.364197530864195,0)" xlink:href="#ar"/><use transform="matrix(0.0679012345679012,0,0,0.0679012345679012,18.944444444444436,0)" xlink:href="#as"/><use transform="matrix(0.0679012345679012,0,0,0.0679012345679012,31.16666666666665,0)" xlink:href="#av"/><use transform="matrix(0.0679012345679012,0,0,0.0679012345679012,37.95679012345677,0)" xlink:href="#aP"/><use transform="matrix(0.0679012345679012,0,0,0.0679012345679012,51.53703703703701,0)" xlink:href="#aA"/><use transform="matrix(0.0679012345679012,0,0,0.0679012345679012,59.61728395061725,0)" xlink:href="#aw"/><use transform="matrix(0.0679012345679012,0,0,0.0679012345679012,73.19753086419747,0)" xlink:href="#aQ"/></g><g id="v"><use transform="matrix(0.0679012345679012,0,0,0.0679012345679012,0,0)" xlink:href="#aB"/><use transform="matrix(0.0679012345679012,0,0,0.0679012345679012,13.58024691358024,0)" xlink:href="#ar"/></g><g id="w"><use transform="matrix(0.0679012345679012,0,0,0.0679012345679012,0,0)" xlink:href="#ax"/><use transform="matrix(0.0679012345679012,0,0,0.0679012345679012,5.364197530864195,0)" xlink:href="#at"/><use transform="matrix(0.0679012345679012,0,0,0.0679012345679012,18.944444444444436,0)" xlink:href="#aQ"/></g><g id="x"><use transform="matrix(0.0679012345679012,0,0,0.0679012345679012,0,0)" xlink:href="#aQ"/><use transform="matrix(0.0679012345679012,0,0,0.0679012345679012,12.222222222222216,0)" xlink:href="#ar"/><use transform="matrix(0.0679012345679012,0,0,0.0679012345679012,25.802469135802454,0)" xlink:href="#au"/><use transform="matrix(0.0679012345679012,0,0,0.0679012345679012,39.38271604938269,0)" xlink:href="#aQ"/><use transform="matrix(0.0679012345679012,0,0,0.0679012345679012,51.60493827160491,0)" xlink:href="#at"/><use transform="matrix(0.0679012345679012,0,0,0.0679012345679012,65.18518518518515,0)" xlink:href="#aA"/><use transform="matrix(0.0679012345679012,0,0,0.0679012345679012,73.26543209876539,0)" xlink:href="#ar"/><use transform="matrix(0.0679012345679012,0,0,0.0679012345679012,86.84567901234563,0)" xlink:href="#aQ"/></g><use transform="matrix(0.0679012345679012,0,0,0.0679012345679012,0,0)" xlink:href="#aI" id="y"/><g id="z"><use transform="matrix(0.0679012345679012,0,0,0.0679012345679012,0,0)" xlink:href="#aB"/><use transform="matrix(0.0679012345679012,0,0,0.0679012345679012,13.58024691358024,0)" xlink:href="#ar"/><use transform="matrix(0.0679012345679012,0,0,0.0679012345679012,27.16049382716048,0)" xlink:href="#as"/><use transform="matrix(0.0679012345679012,0,0,0.0679012345679012,39.38271604938269,0)" xlink:href="#at"/><use transform="matrix(0.0679012345679012,0,0,0.0679012345679012,52.96296296296293,0)" xlink:href="#aB"/><use transform="matrix(0.0679012345679012,0,0,0.0679012345679012,66.54320987654317,0)" xlink:href="#aF"/><use transform="matrix(0.0679012345679012,0,0,0.0679012345679012,71.90740740740736,0)" xlink:href="#aH"/><use transform="matrix(0.0679012345679012,0,0,0.0679012345679012,78.69753086419749,0)" xlink:href="#aF"/><use transform="matrix(0.0679012345679012,0,0,0.0679012345679012,84.06172839506168,0)" xlink:href="#as"/><use transform="matrix(0.0679012345679012,0,0,0.0679012345679012,96.28395061728389,0)" xlink:href="#aw"/></g><path d="M115-194c53 0 69 39 70 98 0 66-23 100-70 100C84 3 66-7 56-30L54 0H23l1-261h32v101c10-23 28-34 59-34zm-8 174c40 0 45-34 45-75 0-40-5-75-45-74-42 0-51 32-51 76 0 43 10 73 51 73" id="aR"/><g id="A"><use transform="matrix(0.0679012345679012,0,0,0.0679012345679012,0,0)" xlink:href="#aB"/><use transform="matrix(0.0679012345679012,0,0,0.0679012345679012,13.58024691358024,0)" xlink:href="#ar"/><use transform="matrix(0.0679012345679012,0,0,0.0679012345679012,27.16049382716048,0)" xlink:href="#as"/><use transform="matrix(0.0679012345679012,0,0,0.0679012345679012,39.38271604938269,0)" xlink:href="#aF"/><use transform="matrix(0.0679012345679012,0,0,0.0679012345679012,44.74691358024689,0)" xlink:href="#aR"/><use transform="matrix(0.0679012345679012,0,0,0.0679012345679012,58.32716049382712,0)" xlink:href="#ar"/><use transform="matrix(0.0679012345679012,0,0,0.0679012345679012,71.90740740740736,0)" xlink:href="#ax"/><use transform="matrix(0.0679012345679012,0,0,0.0679012345679012,77.27160493827155,0)" xlink:href="#ar"/><use transform="matrix(0.0679012345679012,0,0,0.0679012345679012,90.85185185185179,0)" xlink:href="#aQ"/><use transform="matrix(0.0679012345679012,0,0,0.0679012345679012,103.074074074074,0)" xlink:href="#aN"/></g><g id="B"><use transform="matrix(0.0679012345679012,0,0,0.0679012345679012,0,0)" xlink:href="#aP"/><use transform="matrix(0.0679012345679012,0,0,0.0679012345679012,13.58024691358024,0)" xlink:href="#aQ"/><use transform="matrix(0.0679012345679012,0,0,0.0679012345679012,25.802469135802454,0)" xlink:href="#aw"/></g><path d="M153-248C145-148 188 4 80 4 36 3 13-21 6-62l32-5c4 25 16 42 43 43 27 0 39-20 39-49v-147H72v-28h81" id="aS"/><g id="C"><use transform="matrix(0.0679012345679012,0,0,0.0679012345679012,0,0)" xlink:href="#aS"/><use transform="matrix(0.0679012345679012,0,0,0.0679012345679012,12.222222222222216,0)" xlink:href="#aw"/><use transform="matrix(0.0679012345679012,0,0,0.0679012345679012,25.802469135802454,0)" xlink:href="#aC"/><use transform="matrix(0.0679012345679012,0,0,0.0679012345679012,38.02469135802467,0)" xlink:href="#aw"/><use transform="matrix(0.0679012345679012,0,0,0.0679012345679012,51.60493827160491,0)" xlink:href="#aq"/><use transform="matrix(0.0679012345679012,0,0,0.0679012345679012,67.9012345679012,0)" xlink:href="#as"/><use transform="matrix(0.0679012345679012,0,0,0.0679012345679012,80.12345679012341,0)" xlink:href="#aA"/><use transform="matrix(0.0679012345679012,0,0,0.0679012345679012,88.20370370370365,0)" xlink:href="#aF"/><use transform="matrix(0.0679012345679012,0,0,0.0679012345679012,93.56790123456784,0)" xlink:href="#az"/><use transform="matrix(0.0679012345679012,0,0,0.0679012345679012,107.14814814814808,0)" xlink:href="#av"/></g><use transform="matrix(0.0679012345679012,0,0,0.0679012345679012,0,0)" xlink:href="#aI" id="D"/><path d="M197 0v-115H63V0H30v-248h33v105h134v-105h34V0h-34" id="aT"/><path d="M127-220V0H93v-220H8v-28h204v28h-85" id="aU"/><path d="M240 0l2-218c-23 76-54 145-80 218h-23L58-218 59 0H30v-248h44l77 211c21-75 51-140 76-211h43V0h-30" id="aV"/><path d="M30 0v-248h33v221h125V0H30" id="aW"/><g id="E"><use transform="matrix(0.0679012345679012,0,0,0.0679012345679012,0,0)" xlink:href="#aT"/><use transform="matrix(0.0679012345679012,0,0,0.0679012345679012,17.58641975308641,0)" xlink:href="#aU"/><use transform="matrix(0.0679012345679012,0,0,0.0679012345679012,32.45679012345677,0)" xlink:href="#aV"/><use transform="matrix(0.0679012345679012,0,0,0.0679012345679012,52.75925925925924,0)" xlink:href="#aW"/></g><g id="F"><use transform="matrix(0.0679012345679012,0,0,0.0679012345679012,0,0)" xlink:href="#az"/><use transform="matrix(0.0679012345679012,0,0,0.0679012345679012,13.58024691358024,0)" xlink:href="#aw"/><use transform="matrix(0.0679012345679012,0,0,0.0679012345679012,27.16049382716048,0)" xlink:href="#aA"/><use transform="matrix(0.0679012345679012,0,0,0.0679012345679012,35.24074074074072,0)" xlink:href="#aw"/></g><g id="G"><use transform="matrix(0.0679012345679012,0,0,0.0679012345679012,0,0)" xlink:href="#ay"/><use transform="matrix(0.0679012345679012,0,0,0.0679012345679012,20.30246913580246,0)" xlink:href="#aw"/><use transform="matrix(0.0679012345679012,0,0,0.0679012345679012,33.8827160493827,0)" xlink:href="#au"/><use transform="matrix(0.0679012345679012,0,0,0.0679012345679012,47.46296296296294,0)" xlink:href="#aB"/><use transform="matrix(0.0679012345679012,0,0,0.0679012345679012,61.04320987654318,0)" xlink:href="#aw"/><use transform="matrix(0.0679012345679012,0,0,0.0679012345679012,74.62345679012341,0)" xlink:href="#aA"/></g><g id="H"><use transform="matrix(0.0679012345679012,0,0,0.0679012345679012,0,0)" xlink:href="#aC"/><use transform="matrix(0.0679012345679012,0,0,0.0679012345679012,12.222222222222216,0)" xlink:href="#aw"/><use transform="matrix(0.0679012345679012,0,0,0.0679012345679012,25.802469135802454,0)" xlink:href="#ax"/><use transform="matrix(0.0679012345679012,0,0,0.0679012345679012,31.16666666666665,0)" xlink:href="#at"/><use transform="matrix(0.0679012345679012,0,0,0.0679012345679012,44.74691358024689,0)" xlink:href="#aA"/></g><g id="I"><use transform="matrix(0.0679012345679012,0,0,0.0679012345679012,0,0)" xlink:href="#aB"/><use transform="matrix(0.0679012345679012,0,0,0.0679012345679012,13.58024691358024,0)" xlink:href="#ar"/><use transform="matrix(0.0679012345679012,0,0,0.0679012345679012,27.16049382716048,0)" xlink:href="#ax"/></g><g id="J"><use transform="matrix(0.0679012345679012,0,0,0.0679012345679012,0,0)" xlink:href="#aO"/><use transform="matrix(0.0679012345679012,0,0,0.0679012345679012,13.58024691358024,0)" xlink:href="#aA"/><use transform="matrix(0.0679012345679012,0,0,0.0679012345679012,21.660493827160483,0)" xlink:href="#aF"/><use transform="matrix(0.0679012345679012,0,0,0.0679012345679012,27.02469135802468,0)" xlink:href="#av"/><use transform="matrix(0.0679012345679012,0,0,0.0679012345679012,33.814814814814795,0)" xlink:href="#at"/></g><g id="K"><use transform="matrix(0.0679012345679012,0,0,0.0679012345679012,0,0)" xlink:href="#aw"/><use transform="matrix(0.0679012345679012,0,0,0.0679012345679012,13.58024691358024,0)" xlink:href="#ax"/></g><g id="L"><use transform="matrix(0.0679012345679012,0,0,0.0679012345679012,0,0)" xlink:href="#az"/><use transform="matrix(0.0679012345679012,0,0,0.0679012345679012,13.58024691358024,0)" xlink:href="#aw"/><use transform="matrix(0.0679012345679012,0,0,0.0679012345679012,27.16049382716048,0)" xlink:href="#au"/><use transform="matrix(0.0679012345679012,0,0,0.0679012345679012,40.74074074074072,0)" xlink:href="#ar"/><use transform="matrix(0.0679012345679012,0,0,0.0679012345679012,54.32098765432096,0)" xlink:href="#ax"/></g><path d="M206 0h-36l-40-164L89 0H53L-1-190h32L70-26l43-164h34l41 164 42-164h31" id="aX"/><g id="M"><use transform="matrix(0.0679012345679012,0,0,0.0679012345679012,0,0)" xlink:href="#aX"/><use transform="matrix(0.0679012345679012,0,0,0.0679012345679012,17.58641975308641,0)" xlink:href="#ar"/><use transform="matrix(0.0679012345679012,0,0,0.0679012345679012,31.16666666666665,0)" xlink:href="#aR"/><use transform="matrix(0.0679012345679012,0,0,0.0679012345679012,44.74691358024689,0)" xlink:href="#aN"/></g><path d="M232-93c-1 65-40 97-104 97C67 4 28-28 28-90v-158h33c8 89-33 224 67 224 102 0 64-133 71-224h33v155" id="aY"/><g id="N"><use transform="matrix(0.06790123456790119,0,0,0.06790123456790119,0,0)" xlink:href="#aY"/><use transform="matrix(0.06790123456790119,0,0,0.06790123456790119,17.586419753086407,0)" xlink:href="#aQ"/><use transform="matrix(0.06790123456790119,0,0,0.06790123456790119,29.80864197530862,0)" xlink:href="#aw"/><use transform="matrix(0.06790123456790119,0,0,0.06790123456790119,43.38888888888886,0)" xlink:href="#au"/><use transform="matrix(0.06790123456790119,0,0,0.06790123456790119,56.9691358024691,0)" xlink:href="#aB"/><use transform="matrix(0.06790123456790119,0,0,0.06790123456790119,70.54938271604934,0)" xlink:href="#at"/></g><g id="O"><use transform="matrix(0.06790123456790119,0,0,0.06790123456790119,0,0)" xlink:href="#aS"/><use transform="matrix(0.06790123456790119,0,0,0.06790123456790119,12.222222222222214,0)" xlink:href="#aw"/><use transform="matrix(0.06790123456790119,0,0,0.06790123456790119,25.802469135802454,0)" xlink:href="#aC"/><use transform="matrix(0.06790123456790119,0,0,0.06790123456790119,38.02469135802467,0)" xlink:href="#aw"/><use transform="matrix(0.06790123456790119,0,0,0.06790123456790119,51.60493827160491,0)" xlink:href="#aq"/><use transform="matrix(0.06790123456790119,0,0,0.06790123456790119,67.9012345679012,0)" xlink:href="#as"/><use transform="matrix(0.06790123456790119,0,0,0.06790123456790119,80.12345679012341,0)" xlink:href="#aA"/><use transform="matrix(0.06790123456790119,0,0,0.06790123456790119,88.20370370370367,0)" xlink:href="#aF"/><use transform="matrix(0.06790123456790119,0,0,0.06790123456790119,93.56790123456784,0)" xlink:href="#az"/><use transform="matrix(0.06790123456790119,0,0,0.06790123456790119,107.14814814814808,0)" xlink:href="#av"/></g><g id="P"><use transform="matrix(0.06790123456790119,0,0,0.06790123456790119,0,0)" xlink:href="#aB"/><use transform="matrix(0.06790123456790119,0,0,0.06790123456790119,13.580246913580238,0)" xlink:href="#ar"/></g><g id="Q"><use transform="matrix(0.06790123456790119,0,0,0.06790123456790119,0,0)" xlink:href="#au"/><use transform="matrix(0.06790123456790119,0,0,0.06790123456790119,13.580246913580238,0)" xlink:href="#aP"/><use transform="matrix(0.06790123456790119,0,0,0.06790123456790119,27.160493827160476,0)" xlink:href="#ar"/><use transform="matrix(0.06790123456790119,0,0,0.06790123456790119,40.74074074074071,0)" xlink:href="#aC"/><use transform="matrix(0.06790123456790119,0,0,0.06790123456790119,52.962962962962926,0)" xlink:href="#at"/><use transform="matrix(0.06790123456790119,0,0,0.06790123456790119,66.54320987654316,0)" xlink:href="#aE"/></g><use transform="matrix(0.06790123456790119,0,0,0.06790123456790119,0,0)" xlink:href="#aI" id="R"/><g id="S"><use transform="matrix(0.06790123456790119,0,0,0.06790123456790119,0,0)" xlink:href="#as"/><use transform="matrix(0.06790123456790119,0,0,0.06790123456790119,12.222222222222214,0)" xlink:href="#at"/><use transform="matrix(0.06790123456790119,0,0,0.06790123456790119,25.802469135802454,0)" xlink:href="#au"/><use transform="matrix(0.06790123456790119,0,0,0.06790123456790119,39.3827160493827,0)" xlink:href="#aQ"/><use transform="matrix(0.06790123456790119,0,0,0.06790123456790119,51.60493827160491,0)" xlink:href="#aF"/><use transform="matrix(0.06790123456790119,0,0,0.06790123456790119,56.969135802469104,0)" xlink:href="#aB"/><use transform="matrix(0.06790123456790119,0,0,0.06790123456790119,70.54938271604934,0)" xlink:href="#ar"/><use transform="matrix(0.06790123456790119,0,0,0.06790123456790119,84.12962962962958,0)" xlink:href="#aA"/><use transform="matrix(0.06790123456790119,0,0,0.06790123456790119,92.20987654320982,0)" xlink:href="#aw"/><use transform="matrix(0.06790123456790119,0,0,0.06790123456790119,105.79012345679006,0)" xlink:href="#au"/><use transform="matrix(0.06790123456790119,0,0,0.06790123456790119,119.3703703703703,0)" xlink:href="#aB"/><use transform="matrix(0.06790123456790119,0,0,0.06790123456790119,132.95061728395052,0)" xlink:href="#at"/></g><g id="T"><use transform="matrix(0.06790123456790119,0,0,0.06790123456790119,0,0)" xlink:href="#ax"/><use transform="matrix(0.06790123456790119,0,0,0.06790123456790119,5.364197530864194,0)" xlink:href="#at"/><use transform="matrix(0.06790123456790119,0,0,0.06790123456790119,18.944444444444432,0)" xlink:href="#aQ"/></g><g id="U"><use transform="matrix(0.06790123456790119,0,0,0.06790123456790119,0,0)" xlink:href="#aB"/><use transform="matrix(0.06790123456790119,0,0,0.06790123456790119,13.580246913580238,0)" xlink:href="#ar"/><use transform="matrix(0.06790123456790119,0,0,0.06790123456790119,27.160493827160476,0)" xlink:href="#as"/><use transform="matrix(0.06790123456790119,0,0,0.06790123456790119,39.3827160493827,0)" xlink:href="#aF"/><use transform="matrix(0.06790123456790119,0,0,0.06790123456790119,44.74691358024689,0)" xlink:href="#aR"/><use transform="matrix(0.06790123456790119,0,0,0.06790123456790119,58.32716049382713,0)" xlink:href="#ar"/><use transform="matrix(0.06790123456790119,0,0,0.06790123456790119,71.90740740740736,0)" xlink:href="#ax"/><use transform="matrix(0.06790123456790119,0,0,0.06790123456790119,77.27160493827155,0)" xlink:href="#ar"/><use transform="matrix(0.06790123456790119,0,0,0.06790123456790119,90.85185185185179,0)" xlink:href="#aQ"/><use transform="matrix(0.06790123456790119,0,0,0.06790123456790119,103.074074074074,0)" xlink:href="#aE"/></g><g id="V"><use transform="matrix(0.06790123456790119,0,0,0.06790123456790119,0,0)" xlink:href="#aQ"/><use transform="matrix(0.06790123456790119,0,0,0.06790123456790119,12.222222222222214,0)" xlink:href="#ar"/></g><g id="W"><use transform="matrix(0.06790123456790119,0,0,0.06790123456790119,0,0)" xlink:href="#as"/><use transform="matrix(0.06790123456790119,0,0,0.06790123456790119,12.222222222222214,0)" xlink:href="#aA"/><use transform="matrix(0.06790123456790119,0,0,0.06790123456790119,20.302469135802454,0)" xlink:href="#ar"/><use transform="matrix(0.06790123456790119,0,0,0.06790123456790119,33.882716049382694,0)" xlink:href="#aw"/></g><g id="X"><use transform="matrix(0.06790123456790119,0,0,0.06790123456790119,0,0)" xlink:href="#aP"/><use transform="matrix(0.06790123456790119,0,0,0.06790123456790119,13.580246913580238,0)" xlink:href="#au"/></g><g id="Y"><use transform="matrix(0.06790123456790119,0,0,0.06790123456790119,0,0)" xlink:href="#as"/><use transform="matrix(0.06790123456790119,0,0,0.06790123456790119,12.222222222222214,0)" xlink:href="#aw"/><use transform="matrix(0.06790123456790119,0,0,0.06790123456790119,25.802469135802454,0)" xlink:href="#ay"/><use transform="matrix(0.06790123456790119,0,0,0.06790123456790119,46.10493827160491,0)" xlink:href="#aR"/><use transform="matrix(0.06790123456790119,0,0,0.06790123456790119,59.68518518518515,0)" xlink:href="#aF"/><use transform="matrix(0.06790123456790119,0,0,0.06790123456790119,65.04938271604934,0)" xlink:href="#at"/></g><g id="Z"><use transform="matrix(0.06790123456790119,0,0,0.06790123456790119,0,0)" xlink:href="#aC"/><use transform="matrix(0.06790123456790119,0,0,0.06790123456790119,12.222222222222214,0)" xlink:href="#aF"/><use transform="matrix(0.06790123456790119,0,0,0.06790123456790119,17.58641975308641,0)" xlink:href="#aQ"/><use transform="matrix(0.06790123456790119,0,0,0.06790123456790119,29.808641975308625,0)" xlink:href="#aP"/><use transform="matrix(0.06790123456790119,0,0,0.06790123456790119,43.388888888888864,0)" xlink:href="#aw"/><use transform="matrix(0.06790123456790119,0,0,0.06790123456790119,56.969135802469104,0)" xlink:href="#ax"/></g><g id="aa"><use transform="matrix(0.06790123456790119,0,0,0.06790123456790119,0,0)" xlink:href="#ar"/><use transform="matrix(0.06790123456790119,0,0,0.06790123456790119,13.580246913580238,0)" xlink:href="#au"/></g><g id="ab"><use transform="matrix(0.06790123456790119,0,0,0.06790123456790119,0,0)" xlink:href="#ax"/><use transform="matrix(0.06790123456790119,0,0,0.06790123456790119,5.364197530864194,0)" xlink:href="#aw"/></g><path d="M109-170H84l-4-78h32zm-65 0H19l-4-78h33" id="aZ"/><g id="ac"><use transform="matrix(0.06790123456790119,0,0,0.06790123456790119,0,0)" xlink:href="#aZ"/><use transform="matrix(0.06790123456790119,0,0,0.06790123456790119,8.62345679012345,0)" xlink:href="#aR"/><use transform="matrix(0.06790123456790119,0,0,0.06790123456790119,22.203703703703688,0)" xlink:href="#aw"/><use transform="matrix(0.06790123456790119,0,0,0.06790123456790119,35.78395061728393,0)" xlink:href="#av"/><use transform="matrix(0.06790123456790119,0,0,0.06790123456790119,42.57407407407405,0)" xlink:href="#ar"/><use transform="matrix(0.06790123456790119,0,0,0.06790123456790119,56.154320987654295,0)" xlink:href="#aA"/><use transform="matrix(0.06790123456790119,0,0,0.06790123456790119,64.23456790123453,0)" xlink:href="#aF"/><use transform="matrix(0.06790123456790119,0,0,0.06790123456790119,69.59876543209872,0)" xlink:href="#aw"/><use transform="matrix(0.06790123456790119,0,0,0.06790123456790119,83.17901234567896,0)" xlink:href="#aZ"/></g><g id="ad"><use transform="matrix(0.06790123456790119,0,0,0.06790123456790119,0,0)" xlink:href="#ar"/><use transform="matrix(0.06790123456790119,0,0,0.06790123456790119,13.580246913580238,0)" xlink:href="#au"/></g><g id="ae"><use transform="matrix(0.06790123456790119,0,0,0.06790123456790119,0,0)" xlink:href="#ar"/><use transform="matrix(0.06790123456790119,0,0,0.06790123456790119,13.580246913580238,0)" xlink:href="#ax"/></g><g id="af"><use transform="matrix(0.06790123456790119,0,0,0.06790123456790119,0,0)" xlink:href="#az"/><use transform="matrix(0.06790123456790119,0,0,0.06790123456790119,13.580246913580238,0)" xlink:href="#aw"/><use transform="matrix(0.06790123456790119,0,0,0.06790123456790119,27.160493827160476,0)" xlink:href="#au"/><use transform="matrix(0.06790123456790119,0,0,0.06790123456790119,40.74074074074071,0)" xlink:href="#ar"/><use transform="matrix(0.06790123456790119,0,0,0.06790123456790119,54.32098765432095,0)" xlink:href="#ax"/></g><g id="ag"><use transform="matrix(0.06790123456790119,0,0,0.06790123456790119,0,0)" xlink:href="#aX"/><use transform="matrix(0.06790123456790119,0,0,0.06790123456790119,17.586419753086407,0)" xlink:href="#ar"/><use transform="matrix(0.06790123456790119,0,0,0.06790123456790119,31.166666666666643,0)" xlink:href="#aR"/></g><g id="ah"><use transform="matrix(0.0679012345679012,0,0,0.0679012345679012,0,0)" xlink:href="#aJ"/><use transform="matrix(0.0679012345679012,0,0,0.0679012345679012,16.29629629629629,0)" xlink:href="#ax"/></g><g id="ai"><use transform="matrix(0.0679012345679012,0,0,0.0679012345679012,0,0)" xlink:href="#aC"/><use transform="matrix(0.0679012345679012,0,0,0.0679012345679012,12.222222222222216,0)" xlink:href="#aw"/><use transform="matrix(0.0679012345679012,0,0,0.0679012345679012,25.802469135802454,0)" xlink:href="#ax"/><use transform="matrix(0.0679012345679012,0,0,0.0679012345679012,31.16666666666665,0)" xlink:href="#at"/><use transform="matrix(0.0679012345679012,0,0,0.0679012345679012,44.74691358024689,0)" xlink:href="#aA"/></g><g id="aj"><use transform="matrix(0.0679012345679012,0,0,0.0679012345679012,0,0)" xlink:href="#ax"/><use transform="matrix(0.0679012345679012,0,0,0.0679012345679012,5.364197530864195,0)" xlink:href="#at"/><use transform="matrix(0.0679012345679012,0,0,0.0679012345679012,18.944444444444436,0)" xlink:href="#aQ"/></g><g id="ak"><use transform="matrix(0.0679012345679012,0,0,0.0679012345679012,0,0)" xlink:href="#aB"/><use transform="matrix(0.0679012345679012,0,0,0.0679012345679012,13.58024691358024,0)" xlink:href="#ar"/><use transform="matrix(0.0679012345679012,0,0,0.0679012345679012,27.16049382716048,0)" xlink:href="#as"/><use transform="matrix(0.0679012345679012,0,0,0.0679012345679012,39.38271604938269,0)" xlink:href="#aF"/><use transform="matrix(0.0679012345679012,0,0,0.0679012345679012,44.74691358024689,0)" xlink:href="#aR"/><use transform="matrix(0.0679012345679012,0,0,0.0679012345679012,58.32716049382712,0)" xlink:href="#ar"/><use transform="matrix(0.0679012345679012,0,0,0.0679012345679012,71.90740740740736,0)" xlink:href="#ax"/><use transform="matrix(0.0679012345679012,0,0,0.0679012345679012,77.27160493827155,0)" xlink:href="#ar"/><use transform="matrix(0.0679012345679012,0,0,0.0679012345679012,90.85185185185179,0)" xlink:href="#aQ"/></g><g id="al"><use transform="matrix(0.0679012345679012,0,0,0.0679012345679012,0,0)" xlink:href="#ar"/><use transform="matrix(0.0679012345679012,0,0,0.0679012345679012,13.58024691358024,0)" xlink:href="#aQ"/></g><g id="am"><use transform="matrix(0.0679012345679012,0,0,0.0679012345679012,0,0)" xlink:href="#ay"/><use transform="matrix(0.0679012345679012,0,0,0.0679012345679012,20.30246913580246,0)" xlink:href="#at"/><use transform="matrix(0.0679012345679012,0,0,0.0679012345679012,33.8827160493827,0)" xlink:href="#aQ"/><use transform="matrix(0.0679012345679012,0,0,0.0679012345679012,46.104938271604915,0)" xlink:href="#av"/><use transform="matrix(0.0679012345679012,0,0,0.0679012345679012,52.895061728395035,0)" xlink:href="#aA"/><use transform="matrix(0.0679012345679012,0,0,0.0679012345679012,60.975308641975275,0)" xlink:href="#aw"/><use transform="matrix(0.0679012345679012,0,0,0.0679012345679012,74.55555555555551,0)" xlink:href="#aB"/><use transform="matrix(0.0679012345679012,0,0,0.0679012345679012,88.13580246913577,0)" xlink:href="#at"/></g><g id="an"><use transform="matrix(0.0679012345679012,0,0,0.0679012345679012,0,0)" xlink:href="#ar"/><use transform="matrix(0.0679012345679012,0,0,0.0679012345679012,13.58024691358024,0)" xlink:href="#au"/></g><g id="ao"><use transform="matrix(0.0679012345679012,0,0,0.0679012345679012,0,0)" xlink:href="#az"/><use transform="matrix(0.0679012345679012,0,0,0.0679012345679012,13.58024691358024,0)" xlink:href="#aw"/><use transform="matrix(0.0679012345679012,0,0,0.0679012345679012,27.16049382716048,0)" xlink:href="#au"/><use transform="matrix(0.0679012345679012,0,0,0.0679012345679012,40.74074074074072,0)" xlink:href="#av"/><use transform="matrix(0.0679012345679012,0,0,0.0679012345679012,47.53086419753084,0)" xlink:href="#aw"/><use transform="matrix(0.0679012345679012,0,0,0.0679012345679012,61.11111111111107,0)" xlink:href="#ax"/><use transform="matrix(0.0679012345679012,0,0,0.0679012345679012,66.47530864197527,0)" xlink:href="#ax"/><use transform="matrix(0.0679012345679012,0,0,0.0679012345679012,71.83950617283946,0)" xlink:href="#aw"/></g><path d="M140-251c81 0 123 46 123 126C263-46 219 4 140 4 59 4 17-45 17-125s42-126 123-126zm0 227c63 0 89-41 89-101s-29-99-89-99c-61 0-89 39-89 99S79-25 140-24" id="ba"/><path d="M30-248c118-7 216 8 213 122C240-48 200 0 122 0H30v-248zM63-27c89 8 146-16 146-99s-60-101-146-95v194" id="bb"/><g id="ap"><use transform="matrix(0.0679012345679012,0,0,0.0679012345679012,0,0)" xlink:href="#ba"/><use transform="matrix(0.0679012345679012,0,0,0.0679012345679012,19.012345679012338,0)" xlink:href="#aW"/><use transform="matrix(0.0679012345679012,0,0,0.0679012345679012,32.59259259259258,0)" xlink:href="#aJ"/><use transform="matrix(0.0679012345679012,0,0,0.0679012345679012,48.88888888888887,0)" xlink:href="#bb"/></g></defs></g></svg>